<svg id="Layer_1" data-name="Layer 1" xmlns="http://www.w3.org/2000/svg" viewBox="0 0 789.36 600.6"><defs><style>.cls-1{fill:#ff5000;}.cls-2{fill:#00c805;}</style></defs><path class="cls-1" d="M568.73,612.88c-9.83,0-10-.12-7.91-8.37,10.91-44,22.61-87.69,37.17-130.61a13.6,13.6,0,0,0,.34-7.94c-5.75-23.32-9.51-47-13-70.74a15.9,15.9,0,0,1,2.77-11.89q33.21-48.56,70.55-94a21.26,21.26,0,0,1,12-7.78q51.69-12.12,104.25-19.51c1.56-.22,3.49-.84,4.49.87,1.27,2.17-.75,3.55-1.9,4.88q-23.41,27.09-45,55.68a1095.91,1095.91,0,0,0-76.35,115.21A1079.72,1079.72,0,0,0,577.1,608C575.15,613.4,571.55,613,568.73,612.88Z" transform="translate(-105.32 -164.27)"/><path class="cls-1" d="M811.32,282.41V255.05c0-8.86-2.6-11.58-11.53-10.83-15.39,1.29-30.66,3.62-45.92,6-21.16,3.28-42.21,7.09-63.14,11.64-1.72.37-4,1.45-5.12-.79-1-1.95.92-3.19,2-4.47,10-11.43,20.53-22.35,30.93-33.41,12.82-13.63,26.52-26.36,39.85-39.48A34.76,34.76,0,0,1,772.9,175c20.56-6.31,41.36-11.15,63-10.72a100.16,100.16,0,0,1,24.52,3.25c12.41,3.4,21.33,10.51,26,22.91,5.11,13.49,7.31,27.47,8,41.72a188.18,188.18,0,0,1-2,34.84,22.09,22.09,0,0,1-5.62,11.9A1017.09,1017.09,0,0,0,821,363c-.91,1.29-1.64,3.13-3.64,2.73s-1.87-2.41-2-4c-1-13.1-2.32-26.17-3-39.29C811.7,308.18,810.92,293.82,811.32,282.41Z" transform="translate(-105.32 -164.27)"/><path class="cls-1" d="M802.64,387.75c.13,1.84-1.28,4-2.62,6.23-15.27,25-30.33,50.11-44.46,75.78-1.83,3.32-3.68,6.64-5.3,10.07-1.76,3.72-4.59,5.74-8.52,6.87a1019,1019,0,0,0-105.08,36.93c-1.57.65-3.27,2.06-4.89.53-1.9-1.8-.13-3.57.63-5.15a1083,1083,0,0,1,136-215c6.9-8.54,14-16.89,21.14-25.26,1.16-1.37,2.29-3.52,4.56-2.67s1.87,3.11,1.87,5c0,27,2.61,53.84,4.38,80.74C800.91,370.12,801.82,378.47,802.64,387.75Z" transform="translate(-105.32 -164.27)"/><path class="cls-1" d="M701.9,517.86c-.29.67-.57,1.43-.92,2.16a36.14,36.14,0,0,0-2.14,4.38c-3.4,10.62-11,16.38-21,20.75q-30.75,13.4-60.39,29.21a35.75,35.75,0,0,1-3.29,1.61c-1.09.47-2.28,1.28-3.4.26s-.43-2.29,0-3.39c3.39-8.13,6.88-16.23,10.19-24.39,1.38-3.41,4.29-4.69,7.29-6q26.84-11.75,54.6-21.1c5.14-1.74,10.25-3.55,15.41-5.22C699.75,515.64,701.57,515.16,701.9,517.86Z" transform="translate(-105.32 -164.27)"/><path class="cls-2" d="M510.3,324.14C434.51,355.89,371.1,434.21,305,524c-53.34,72.46-108.55,151.77-176,217.74a3.67,3.67,0,0,0,3.78,6.09c98.58-34.92,206.87-70.42,300.05-104.77,39.73-14.65,75.61-28,107.75-42a3,3,0,0,0,1.75-2.13l2-9.24a2.68,2.68,0,0,1,.07-.27c6-18.58,24.85-94.85,36-120.15a3.18,3.18,0,0,0,.2-1.9c-5.87-27.67-10-45.18-12-69.19a2.93,2.93,0,0,0-.35-1.19c-8-15.21-10.53-23.07-17.89-34.05-6.31-9.41-19.84-24.38-24.83-28.71-3.75-3.25-13.33-9.59-15.22-10.07Zm-234.81,204a3.49,3.49,0,0,0-4.1-5.31c-30.83,12.26-55.28,32.62-76,51.12a.52.52,0,0,0-.11.1C157,613.41,127,662.79,105.53,723.48a3.47,3.47,0,0,0,5.69,3.65C172.19,668.31,224.79,597.46,275.49,528.1ZM711.8,546.24c-20.06,17.39-48.71,33.56-84.08,50.53-44.13,21.18-98.63,42.85-158.49,64.87-75.1,27.63-208.84,68.34-291.49,92.25-21.72,6.29-14,11,2.46,11,56.28-.19,169.26-27.42,230-43.41,71.59-18.85,141.66-43.6,198.38-73.73,48.28-25.65,86.29-55.29,108.32-87a8.12,8.12,0,0,0-1.06-10.54q-2.05-1.93-4.06-3.94Z" transform="translate(-105.32 -164.27)"/></svg>