<?xml version="1.0" encoding="UTF-8"?><svg id="a" xmlns="http://www.w3.org/2000/svg" viewBox="0 0 1785.6 604.98"><defs><style>.b{fill:#00c805;}.c{fill:#eeeeec;font-family:AvenirLTStd-Roman, Avenir LT Std;font-size:255px;}.d{fill:#ff5000;}</style></defs><g><path class="d" d="M796.32,448.61c-9.83,0-9.96-.12-7.91-8.37,10.91-43.96,22.6-87.69,37.16-130.61,.91-2.67,1.03-5.18,.34-7.94-5.75-23.32-9.51-47.01-13.02-70.74-.64-4.34,.21-8.13,2.78-11.88,22.13-32.37,45.64-63.7,70.54-93.99,3.23-3.92,6.91-6.6,11.96-7.78,34.46-8.09,69.21-14.59,104.26-19.51,1.56-.22,3.48-.84,4.48,.87,1.27,2.17-.75,3.54-1.9,4.88-15.61,18.06-30.55,36.66-44.96,55.69-27.87,36.8-53.33,75.2-76.35,115.21-31.17,54.19-57.65,110.58-79.02,169.33-1.95,5.37-5.55,5.01-8.37,4.85Z"/><path class="d" d="M1038.9,118.14c0-11.09,0-19.23,0-27.36,0-8.86-2.6-11.57-11.53-10.82-15.39,1.29-30.66,3.62-45.92,5.98-21.15,3.28-42.21,7.08-63.14,11.63-1.72,.38-3.98,1.46-5.13-.79-.99-1.95,.92-3.19,2.04-4.47,10-11.42,20.53-22.35,30.93-33.41,12.82-13.63,26.53-26.36,39.85-39.48,4.13-4.07,8.87-6.96,14.47-8.68,20.56-6.31,41.35-11.15,63.03-10.72,8.27,.16,16.49,1.04,24.51,3.24,12.41,3.4,21.33,10.52,26.02,22.91,5.11,13.49,7.31,27.47,8.04,41.72,.59,11.66-.4,23.27-1.97,34.84-.63,4.66-2.6,8.44-5.62,11.9-23.48,26.86-45.39,54.96-65.93,84.13-.91,1.29-1.63,3.13-3.63,2.73-2.11-.42-1.88-2.41-2-3.98-1.03-13.09-2.32-26.17-2.96-39.28-.7-14.34-1.47-28.69-1.07-40.11Z"/><path class="d" d="M1030.22,223.48c.13,1.84-1.28,4.04-2.62,6.24-15.27,24.99-30.33,50.11-44.46,75.77-1.83,3.33-3.68,6.65-5.31,10.07-1.76,3.72-4.59,5.74-8.51,6.87-35.72,10.33-70.71,22.76-105.09,36.93-1.57,.65-3.27,2.06-4.89,.52-1.9-1.79-.13-3.56,.63-5.15,36.79-77.09,82.34-148.64,136.02-215.04,6.9-8.54,14.04-16.89,21.14-25.26,1.16-1.37,2.29-3.52,4.55-2.67,2.18,.82,1.87,3.11,1.87,4.96,0,26.99,2.61,53.85,4.38,80.74,.55,8.38,1.45,16.73,2.28,26.01Z"/><path class="d" d="M929.48,353.6c-.28,.67-.56,1.43-.91,2.15-.71,1.47-1.65,2.85-2.14,4.38-3.4,10.62-11.03,16.38-21.04,20.75-20.49,8.94-40.65,18.67-60.39,29.22-1.08,.57-2.17,1.13-3.29,1.61-1.09,.46-2.28,1.28-3.4,.25-1.13-1.04-.43-2.29,.03-3.39,3.39-8.13,6.88-16.22,10.19-24.39,1.38-3.41,4.29-4.69,7.29-6,17.9-7.82,36.11-14.83,54.61-21.1,5.14-1.74,10.24-3.55,15.4-5.22,1.51-.49,3.33-.97,3.66,1.73Z"/></g><path class="b" d="M737.88,159.87c-75.79,31.75-139.2,110.07-205.31,199.86-53.34,72.45-108.55,151.77-176.01,217.73-2.82,2.76,.07,7.41,3.78,6.1,98.58-34.92,206.87-70.43,300.05-104.78,39.72-14.65,75.61-28.03,107.75-42.01,.89-.39,1.54-1.18,1.75-2.13l2.02-9.24c.02-.09,.04-.18,.07-.27,5.97-18.58,24.85-94.85,35.98-120.15,.26-.6,.33-1.26,.2-1.9-5.86-27.67-9.95-45.18-11.99-69.19-.04-.41-.16-.83-.35-1.2-7.98-15.2-10.54-23.06-17.9-34.05-6.31-9.41-19.84-24.38-24.83-28.71-3.74-3.25-13.33-9.59-15.21-10.06h0Zm-234.8,203.95c2.06-2.82-.85-6.6-4.1-5.31-30.84,12.25-55.28,32.62-76,51.12-.04,.03-.07,.07-.11,.11-38.3,39.4-68.34,88.77-89.75,149.47-1.22,3.46,3.05,6.19,5.69,3.65,60.96-58.82,113.57-129.66,164.27-199.03Zm436.31,18.14c-20.06,17.4-48.71,33.56-84.08,50.54-44.13,21.18-98.63,42.85-158.49,64.87-75.09,27.63-208.83,68.33-291.48,92.25-21.72,6.29-14,11.03,2.46,10.98,56.27-.19,169.26-27.42,230.02-43.41,71.59-18.85,141.66-43.6,198.37-73.73,48.28-25.64,86.3-55.29,108.32-87,2.29-3.3,1.86-7.78-1.06-10.54-1.36-1.29-2.71-2.6-4.06-3.94h0Z"/><text class="c" transform="translate(0 216.24)"><tspan x="0" y="0">Stock</tspan></text><text class="c" transform="translate(944.37 541.23)"><tspan x="0" y="0">Bought</tspan></text></svg>